<svg width="44" height="36" viewBox="0 0 44 36" fill="none" xmlns="http://www.w3.org/2000/svg">
<path d="M13.651 29.9547C15.0877 29.9547 16.2523 31.1145 16.2523 32.5451C16.2523 33.9758 15.0877 35.1356 13.651 35.1356H13.3831C9.33423 35.1356 6.052 31.8671 6.052 27.8353V23.6032C6.052 21.7055 4.50711 20.1671 2.60139 20.1671C1.16471 20.1671 4.44471e-05 19.0073 4.44471e-05 17.5767C4.44471e-05 16.146 1.16471 14.9862 2.60139 14.9862C7.38048 14.9862 11.2547 18.8442 11.2547 23.6032V27.8353C11.2547 29.0058 12.2076 29.9547 13.3831 29.9547H13.651Z" fill="#FB6500"/>
<path d="M13.651 5.18082C15.0877 5.18082 16.2523 4.02105 16.2523 2.59041C16.2523 1.15977 15.0877 0 13.651 0H13.3831C9.33423 0 6.052 3.26843 6.052 7.30025V11.5324C6.052 13.4301 4.50711 14.9685 2.60139 14.9685C1.16471 14.9685 4.44471e-05 16.1283 4.44471e-05 17.5589C4.44471e-05 18.9895 1.16471 20.1493 2.60139 20.1493C7.38048 20.1493 11.2547 16.2914 11.2547 11.5324V7.30025C11.2547 6.12972 12.2076 5.18082 13.3831 5.18082H13.651Z" fill="#FFCC00"/>
<path d="M30.349 5.18082C28.9123 5.18082 27.7477 4.02105 27.7477 2.59041C27.7477 1.15977 28.9123 0 30.349 0H30.6169C34.6658 0 37.948 3.26843 37.948 7.30025V11.5324C37.948 13.4301 39.4929 14.9685 41.3986 14.9685C42.8353 14.9685 44 16.1283 44 17.5589C44 18.9895 42.8353 20.1493 41.3986 20.1493C36.6195 20.1493 32.7453 16.2914 32.7453 11.5324V7.30025C32.7453 6.12972 31.7924 5.18082 30.6169 5.18082H30.349Z" fill="#2DBC00"/>
<path d="M30.349 29.9547C28.9123 29.9547 27.7477 31.1145 27.7477 32.5451C27.7477 33.9758 28.9123 35.1356 30.349 35.1356H30.6169C34.6658 35.1356 37.948 31.8671 37.948 27.8353V23.6032C37.948 21.7055 39.4929 20.1671 41.3986 20.1671C42.8353 20.1671 44 19.0073 44 17.5767C44 16.146 42.8353 14.9862 41.3986 14.9862C36.6195 14.9862 32.7453 18.8442 32.7453 23.6032V27.8353C32.7453 29.0058 31.7924 29.9547 30.6169 29.9547H30.349Z" fill="#0082EF"/>
<ellipse cx="21.977" cy="11.889" rx="3.15315" ry="3.13989" fill="#0082EF"/>
<ellipse cx="21.977" cy="23.3195" rx="3.15315" ry="3.13989" fill="#0082EF"/>
</svg>
